<svg width="229" height="48" viewBox="0 0 229 48" fill="none" xmlns="http://www.w3.org/2000/svg">
<path d="M1.87092 45.7706C0.698906 44.6175 0.0784302 43.1499 0.0784302 41.4027C0.0784302 39.6206 0.664439 38.1529 1.83645 37.0347C3.00846 35.8816 4.52519 35.3225 6.31768 35.3225C7.45522 35.3225 8.45487 35.5671 9.38559 36.0563V38.4674C8.48934 37.8734 7.48968 37.5589 6.35214 37.5589C5.24907 37.5589 4.35283 37.9433 3.59447 38.6421C2.87058 39.376 2.4914 40.2495 2.4914 41.4027C2.4914 42.5209 2.87058 43.4294 3.62894 44.1632C4.3873 44.897 5.31802 45.2465 6.45556 45.2465C7.69651 45.2465 8.76511 44.897 9.62688 44.2331V46.6442C8.69617 47.2033 7.5931 47.4828 6.35214 47.4828C4.52518 47.4828 3.04293 46.8888 1.87092 45.7706Z" fill="white"/>
<path d="M19.3821 37.069C20.5197 35.8809 21.9674 35.2869 23.6565 35.2869C25.3456 35.2869 26.7934 35.8809 27.9309 37.069C29.0685 38.2571 29.6545 39.6897 29.6545 41.402C29.6545 43.0793 29.0685 44.5469 27.9309 45.735C26.7934 46.923 25.3801 47.5171 23.6565 47.5171C21.933 47.5171 20.5197 46.923 19.3821 45.735C18.2446 44.5469 17.6931 43.1142 17.6931 41.402C17.6931 39.6548 18.2446 38.2221 19.3821 37.069ZM23.691 45.2108C24.7251 45.2108 25.5524 44.8264 26.2418 44.1276C26.9313 43.3937 27.276 42.4852 27.276 41.367C27.276 40.2488 26.9313 39.3403 26.2418 38.6065C25.5524 37.8727 24.7251 37.5232 23.691 37.5232C22.6569 37.5232 21.7951 37.9076 21.1402 38.6065C20.4507 39.3403 20.1405 40.2488 20.1405 41.367C20.1405 42.4852 20.4852 43.3937 21.1402 44.1276C21.7951 44.8264 22.6569 45.2108 23.691 45.2108Z" fill="white"/>
<path d="M38.4102 47.2376V35.5315H40.4439L46.2695 43.0094V35.5315H48.5791V47.2376H46.6142L40.7542 39.7247V47.2376H38.4102Z" fill="white"/>
<path d="M57.1968 46.2242V43.7082C57.6794 44.1276 58.2998 44.5119 59.1271 44.8264C59.92 45.1409 60.7128 45.2807 61.5056 45.2807C62.7466 45.2807 63.7463 44.8264 63.7463 43.9179C63.7463 43.4986 63.5394 43.1142 63.1602 42.9395C62.9534 42.7997 62.8155 42.7648 62.5053 42.625L62.1261 42.4852L61.1954 42.2057L60.3336 41.9261C60.1613 41.8912 59.92 41.7864 59.5408 41.6466C59.1961 41.5068 58.9548 41.402 58.7824 41.2971C58.4722 41.0875 57.9207 40.6682 57.6794 40.2838C57.4725 39.8994 57.3002 39.3054 57.3002 38.6414C57.3002 37.5931 57.6794 36.7894 58.4722 36.1954C59.265 35.6014 60.3336 35.2869 61.6435 35.2869C62.9879 35.2869 64.2633 35.6014 65.4353 36.2653V38.6065C64.2633 37.8727 63.0224 37.4883 61.678 37.4883C60.3681 37.4883 59.7132 37.8727 59.7132 38.6414C59.7132 39.0258 59.9544 39.2704 60.3336 39.4451C60.5404 39.55 60.9541 39.7247 61.2643 39.7946C61.5746 39.8645 62.1606 40.0392 62.5053 40.179C63.6084 40.5284 64.2288 40.8429 65.0217 41.402C65.8145 41.9611 66.1937 42.7648 66.1937 43.848C66.1937 44.9662 65.78 45.8398 64.8838 46.5037C63.9875 47.1676 62.9189 47.4821 61.6091 47.4821C59.851 47.4821 58.3688 47.0628 57.1968 46.2242Z" fill="white"/>
<path d="M73.6394 35.5315H83.3257V37.698H79.6718V47.2376H77.2933V37.698H73.6394V35.5315Z" fill="white"/>
<path d="M91.6677 47.2376V35.5315H97.0107C98.2172 35.5315 99.2169 35.846 99.9063 36.5099C100.63 37.1389 100.975 37.9775 100.975 38.9909C100.975 40.5634 100.079 41.7514 98.5964 42.2406L102.147 47.2376H99.3893L96.0111 42.5202H94.0118V47.2376H91.6677V47.2376ZM94.0462 40.4585H96.8729C97.9415 40.4585 98.5964 39.9693 98.5964 39.0258C98.5964 38.1523 97.9415 37.5932 96.8729 37.5932H94.0462V40.4585Z" fill="white"/>
<path d="M111.558 46.1194C110.627 45.2108 110.179 43.9529 110.179 42.3105V35.5315H112.523V42.4154C112.523 44.2674 113.591 45.2108 115.108 45.2108C116.659 45.2108 117.693 44.2674 117.693 42.4154V35.5315H120.072V42.3105C120.072 43.9179 119.624 45.2108 118.659 46.1194C117.728 47.0279 116.556 47.4822 115.108 47.4822C113.695 47.4822 112.488 47.0279 111.558 46.1194Z" fill="white"/>
<path d="M130.448 45.7699C129.276 44.6167 128.655 43.1491 128.655 41.4019C128.655 39.6198 129.241 38.1522 130.413 37.034C131.585 35.8809 133.102 35.3218 134.894 35.3218C136.032 35.3218 137.031 35.5664 137.962 36.0556V38.4667C137.066 37.8727 136.066 37.5582 134.929 37.5582C133.826 37.5582 132.929 37.9425 132.171 38.6414C131.447 39.3752 131.068 40.2488 131.068 41.4019C131.068 42.5201 131.447 43.4287 132.206 44.1625C132.964 44.8963 133.895 45.2457 135.032 45.2457C136.273 45.2457 137.342 44.8963 138.203 44.2324V46.6435C137.273 47.2026 136.17 47.4821 134.929 47.4821C133.136 47.4821 131.654 46.8881 130.448 45.7699Z" fill="white"/>
<path d="M146.063 35.5315H155.749V37.698H152.095V47.2376H149.717V37.698H146.063V35.5315Z" fill="white"/>
<path d="M164.195 47.2376V35.5315H166.539V47.2376H164.195Z" fill="white"/>
<path d="M177.087 37.069C178.224 35.8809 179.672 35.2869 181.361 35.2869C183.085 35.2869 184.498 35.8809 185.636 37.069C186.773 38.2571 187.359 39.6897 187.359 41.402C187.359 43.0793 186.773 44.5469 185.636 45.735C184.498 46.923 183.085 47.5171 181.361 47.5171C179.638 47.5171 178.224 46.923 177.087 45.735C175.949 44.5469 175.398 43.1142 175.398 41.402C175.398 39.6548 175.949 38.2221 177.087 37.069ZM181.396 45.2108C182.43 45.2108 183.257 44.8264 183.947 44.1276C184.636 43.3937 184.981 42.4852 184.981 41.367C184.981 40.2488 184.636 39.3403 183.947 38.6065C183.257 37.8727 182.43 37.5232 181.396 37.5232C180.362 37.5232 179.5 37.9076 178.845 38.6065C178.155 39.3403 177.845 40.2488 177.845 41.367C177.845 42.4852 178.19 43.3937 178.845 44.1276C179.5 44.8264 180.362 45.2108 181.396 45.2108Z" fill="white"/>
<path d="M196.115 47.2376V35.5315H198.149L203.974 43.0094V35.5315H206.284V47.2376H204.319L198.459 39.7247V47.2376H196.115Z" fill="white"/>
<path d="M0.0784302 24.7686V1.00708H10.3163C12.8327 1.00708 14.832 1.67101 16.2798 2.99886C17.762 4.32671 18.4859 6.004 18.4859 8.17049C18.4859 10.337 17.762 12.0492 16.2798 13.3421C14.832 14.67 12.8327 15.3339 10.3163 15.3339H4.90436V24.7337H0.0784302V24.7686ZM4.90436 11.2106H10.0061C12.3156 11.2106 13.6945 10.1623 13.6945 8.27532C13.6945 6.38837 12.3156 5.34007 10.0061 5.34007H4.90436V11.2106Z" fill="white"/>
<path d="M21.3815 24.7686V1.00708H38.5825V5.37501H26.2074V9.95261H36.1695V14.2507H26.2074V20.4007H38.9617V24.7686H21.3815Z" fill="white"/>
<path d="M42.8914 24.7686V1.00708H46.9934L58.8169 16.2075V1.00708H63.505V24.7337H59.5408L47.6483 9.4634V24.7337H42.8914V24.7686Z" fill="white"/>
<path d="M66.3661 1.00708H86.0145V5.37501H78.6033V24.7337H73.7773V5.40996H66.4006V1.00708H66.3661Z" fill="white"/>
<path d="M83.8428 24.7687L93.8739 0.902344H98.493L108.524 24.7687H103.422L101.113 19.2826H91.2196L88.9101 24.7687H83.8428ZM92.7019 15.2292H99.5616L96.149 6.98251L92.7019 15.2292Z" fill="white"/>
<path d="M122.864 21.7637C120.485 19.4225 119.279 16.4872 119.279 12.888C119.279 9.2539 120.485 6.31865 122.864 4.01238C125.242 1.70611 128.276 0.552979 131.93 0.552979C134.653 0.552979 136.997 1.14702 138.962 2.33509V7.15729C136.79 5.7945 134.584 5.13057 132.274 5.13057C129.896 5.13057 127.966 5.82944 126.449 7.29707C124.932 8.72975 124.208 10.6167 124.208 12.9929C124.208 15.3341 124.932 17.221 126.38 18.6188C127.828 20.0165 129.62 20.7154 131.757 20.7154C133.791 20.7154 135.377 20.1912 136.48 19.1429V11.0011H141.306V21.4841C140.341 22.5324 138.996 23.441 137.307 24.1748C135.618 24.8736 133.757 25.258 131.792 25.258C128.207 25.2231 125.242 24.0699 122.864 21.7637Z" fill="white"/>
<path d="M145.822 24.7689V1.00732H163.023V5.37526H150.647V9.95285H160.61V14.2509H150.647V20.401H163.402V24.7689H145.822Z" fill="white"/>
<path d="M167.228 22.1481C167.228 20.5058 168.503 19.2478 170.124 19.2478C171.744 19.2478 173.019 20.5407 173.019 22.1481C173.019 23.8254 171.709 25.1183 170.124 25.1183C168.469 25.1183 167.228 23.8254 167.228 22.1481Z" fill="white"/>
<path d="M178.603 21.7637C176.19 19.4225 174.984 16.4872 174.984 12.888C174.984 9.2539 176.19 6.31865 178.569 4.01238C180.982 1.70611 184.015 0.552979 187.669 0.552979C189.979 0.552979 192.013 1.07713 193.874 2.05555V6.98258C192.082 5.75955 190.013 5.16552 187.704 5.16552C185.463 5.16552 183.636 5.89933 182.119 7.36696C180.637 8.83458 179.913 10.6516 179.913 12.923C179.913 15.1943 180.672 17.0463 182.188 18.5139C183.705 19.9815 185.601 20.6804 187.911 20.6804C190.461 20.6804 192.599 20.0165 194.322 18.6188V23.5458C192.426 24.6989 190.22 25.258 187.669 25.258C184.015 25.2231 181.016 24.0699 178.603 21.7637Z" fill="white"/>
<path d="M200.286 4.15216C202.595 1.74106 205.491 0.552979 208.972 0.552979C212.454 0.552979 215.315 1.74106 217.625 4.15216C219.934 6.52832 221.106 9.42863 221.106 12.888C221.106 16.3125 219.934 19.2128 217.625 21.6239C215.315 24.035 212.454 25.2231 208.972 25.2231C205.491 25.2231 202.595 24.035 200.286 21.6239C197.976 19.2128 196.839 16.3125 196.839 12.888C196.873 9.42863 198.011 6.52832 200.286 4.15216ZM209.007 20.6455C211.075 20.6455 212.799 19.9117 214.143 18.444C215.522 16.9764 216.211 15.1244 216.211 12.888C216.211 10.6516 215.522 8.79964 214.143 7.33202C212.764 5.86439 211.075 5.13058 209.007 5.13058C206.939 5.13058 205.181 5.86439 203.836 7.33202C202.492 8.79964 201.802 10.6516 201.802 12.888C201.802 15.1244 202.457 16.9764 203.836 18.444C205.181 19.9117 206.939 20.6455 209.007 20.6455Z" fill="white"/>
<path d="M223.174 22.1481C223.174 20.5058 224.45 19.2478 226.07 19.2478C227.69 19.2478 228.966 20.5407 228.966 22.1481C228.966 23.8254 227.656 25.1183 226.07 25.1183C224.45 25.1183 223.174 23.8254 223.174 22.1481Z" fill="white"/>
</svg>
