<svg width="21" height="20" viewBox="0 0 21 20" fill="none" xmlns="http://www.w3.org/2000/svg">
<g clip-path="url(#clip0)">
<path d="M18.8069 19.4909H1.86157C1.68748 19.4909 1.57141 19.4909 1.57141 19.3167C1.57141 19.1425 1.68748 19.1425 1.86157 19.1425H18.8069C18.981 19.1425 19.0971 19.1425 19.0971 19.3167C19.0971 19.4909 18.981 19.4909 18.8069 19.4909Z" fill="#FCFEFF"/>
<path d="M18.7489 2.64966H15.6732C15.6732 2.64966 16.4276 4.68222 14.3385 4.68222C12.2493 4.68222 7.02642 4.68222 7.02642 4.68222C7.02642 4.68222 4.9953 4.508 5.22743 2.7658L1.86157 2.82388C0.875027 2.82388 0.120611 3.6369 0.120611 4.62415L0.00454712 16.5872C0.00454712 17.5164 0.758963 18.3294 1.68748 18.2714L18.7489 18.1552C19.6774 18.1552 20.4318 17.3422 20.4318 16.413V4.33378C20.4318 3.40461 19.6774 2.64966 18.7489 2.64966ZM3.5445 14.2062C3.5445 14.4966 3.31237 14.787 2.96418 14.787H2.44189C2.15173 14.787 1.86157 14.5547 1.86157 14.2062V14.032C1.86157 13.6836 2.0937 13.4513 2.44189 13.4513H2.96418C3.31237 13.4513 3.5445 13.6836 3.5445 14.032V14.2062ZM3.5445 11.5349C3.5445 11.8252 3.31237 12.1156 2.96418 12.1156H2.44189C2.15173 12.1156 1.86157 11.8833 1.86157 11.5349V11.3606C1.86157 11.0703 2.0937 10.7799 2.44189 10.7799H2.96418C3.31237 10.7799 3.5445 11.0122 3.5445 11.3606V11.5349ZM3.5445 9.15386C3.5445 9.44423 3.31237 9.7346 2.96418 9.7346H2.44189C2.15173 9.7346 1.86157 9.5023 1.86157 9.15386V8.97964C1.86157 8.68928 2.0937 8.39891 2.44189 8.39891H2.96418C3.31237 8.39891 3.5445 8.6312 3.5445 8.97964V9.15386ZM5.92381 14.2062C5.92381 14.4966 5.69169 14.787 5.34349 14.787H4.82121C4.47301 14.787 4.24088 14.5547 4.24088 14.2062V14.032C4.24088 13.6836 4.47301 13.4513 4.82121 13.4513H5.34349C5.63365 13.4513 5.92381 13.6836 5.92381 14.032V14.2062ZM5.92381 11.5349C5.92381 11.8252 5.69169 12.1156 5.34349 12.1156H4.82121C4.47301 12.1156 4.24088 11.8833 4.24088 11.5349V11.3606C4.24088 11.0703 4.47301 10.7799 4.82121 10.7799H5.34349C5.63365 10.7799 5.92381 11.0122 5.92381 11.3606V11.5349ZM5.92381 9.15386C5.92381 9.44423 5.69169 9.7346 5.34349 9.7346H4.82121C4.47301 9.7346 4.24088 9.5023 4.24088 9.15386V8.97964C4.24088 8.68928 4.47301 8.39891 4.82121 8.39891H5.34349C5.63365 8.39891 5.92381 8.6312 5.92381 8.97964V9.15386ZM8.59329 14.2062C8.59329 14.4966 8.36116 14.787 8.01297 14.787H7.49068C7.20052 14.787 6.91036 14.5547 6.91036 14.2062V14.032C6.91036 13.6836 7.14249 13.4513 7.49068 13.4513H8.01297C8.36116 13.4513 8.59329 13.6836 8.59329 14.032V14.2062ZM8.59329 11.5349C8.59329 11.8252 8.36116 12.1156 8.01297 12.1156H7.49068C7.20052 12.1156 6.91036 11.8833 6.91036 11.5349V11.3606C6.91036 11.0703 7.14249 10.7799 7.49068 10.7799H8.01297C8.36116 10.7799 8.59329 11.0122 8.59329 11.3606V11.5349ZM8.59329 9.15386C8.59329 9.44423 8.36116 9.7346 8.01297 9.7346H7.49068C7.20052 9.7346 6.91036 9.5023 6.91036 9.15386V8.97964C6.91036 8.68928 7.14249 8.39891 7.49068 8.39891H8.01297C8.36116 8.39891 8.59329 8.6312 8.59329 8.97964V9.15386ZM11.669 14.2062C11.669 14.4966 11.4369 14.787 11.0887 14.787H10.5664C10.2182 14.787 9.98606 14.5547 9.98606 14.2062V14.032C9.98606 13.6836 10.2182 13.4513 10.5664 13.4513H11.0887C11.3788 13.4513 11.669 13.6836 11.669 14.032V14.2062ZM11.669 11.5349C11.669 11.8252 11.4369 12.1156 11.0887 12.1156H10.5664C10.2182 12.1156 9.98606 11.8833 9.98606 11.5349V11.3606C9.98606 11.0703 10.2182 10.7799 10.5664 10.7799H11.0887C11.3788 10.7799 11.669 11.0122 11.669 11.3606V11.5349ZM11.669 9.15386C11.669 9.44423 11.4369 9.7346 11.0887 9.7346H10.5664C10.2182 9.7346 9.98606 9.5023 9.98606 9.15386V8.97964C9.98606 8.68928 10.2182 8.39891 10.5664 8.39891H11.0887C11.3788 8.39891 11.669 8.6312 11.669 8.97964V9.15386ZM11.669 6.42442C11.669 6.71479 11.4369 7.00515 11.0887 7.00515H10.5664C10.2182 7.00515 9.98606 6.77286 9.98606 6.42442V6.2502C9.98606 5.95983 10.2182 5.66947 10.5664 5.66947H11.0887C11.3788 5.66947 11.669 5.90176 11.669 6.2502V6.42442ZM13.9903 14.2062C13.9903 14.4966 13.7581 14.787 13.4099 14.787H12.8877C12.5975 14.787 12.3073 14.5547 12.3073 14.2062V14.032C12.3073 13.6836 12.5395 13.4513 12.8877 13.4513H13.4099C13.7581 13.4513 13.9903 13.6836 13.9903 14.032V14.2062ZM13.9903 11.5349C13.9903 11.8252 13.7581 12.1156 13.4099 12.1156H12.8877C12.5975 12.1156 12.3073 11.8833 12.3073 11.5349V11.3606C12.3073 11.0703 12.5395 10.7799 12.8877 10.7799H13.4099C13.7581 10.7799 13.9903 11.0122 13.9903 11.3606V11.5349ZM13.9903 9.15386C13.9903 9.44423 13.7581 9.7346 13.4099 9.7346H12.8877C12.5975 9.7346 12.3073 9.5023 12.3073 9.15386V8.97964C12.3073 8.68928 12.5395 8.39891 12.8877 8.39891H13.4099C13.7581 8.39891 13.9903 8.6312 13.9903 8.97964V9.15386ZM13.9903 6.42442C13.9903 6.71479 13.7581 7.00515 13.4099 7.00515H12.8877C12.5975 7.00515 12.3073 6.77286 12.3073 6.42442V6.2502C12.3073 5.95983 12.5395 5.66947 12.8877 5.66947H13.4099C13.7581 5.66947 13.9903 5.90176 13.9903 6.2502V6.42442ZM16.7178 14.2062C16.7178 14.4966 16.4856 14.787 16.1374 14.787H15.6152C15.267 14.787 15.0348 14.5547 15.0348 14.2062V14.032C15.0348 13.6836 15.267 13.4513 15.6152 13.4513H16.1374C16.4276 13.4513 16.7178 13.6836 16.7178 14.032V14.2062ZM16.7178 11.5349C16.7178 11.8252 16.4856 12.1156 16.1374 12.1156H15.6152C15.267 12.1156 15.0348 11.8833 15.0348 11.5349V11.3606C15.0348 11.0703 15.267 10.7799 15.6152 10.7799H16.1374C16.4276 10.7799 16.7178 11.0122 16.7178 11.3606V11.5349ZM16.7178 9.15386C16.7178 9.44423 16.4856 9.7346 16.1374 9.7346H15.6152C15.267 9.7346 15.0348 9.5023 15.0348 9.15386V8.97964C15.0348 8.68928 15.267 8.39891 15.6152 8.39891H16.1374C16.4276 8.39891 16.7178 8.6312 16.7178 8.97964V9.15386ZM16.7178 6.42442C16.7178 6.71479 16.4856 7.00515 16.1374 7.00515H15.6152C15.267 7.00515 15.0348 6.77286 15.0348 6.42442V6.2502C15.0348 5.95983 15.267 5.66947 15.6152 5.66947H16.1374C16.4276 5.66947 16.7178 5.90176 16.7178 6.2502V6.42442ZM19.0971 14.2062C19.0971 14.4966 18.865 14.787 18.5168 14.787H17.9945C17.7043 14.787 17.4142 14.5547 17.4142 14.2062V14.032C17.4142 13.6836 17.6463 13.4513 17.9945 13.4513H18.5168C18.865 13.4513 19.0971 13.6836 19.0971 14.032V14.2062ZM19.0971 11.5349C19.0971 11.8252 18.865 12.1156 18.5168 12.1156H17.9945C17.7043 12.1156 17.4142 11.8833 17.4142 11.5349V11.3606C17.4142 11.0703 17.6463 10.7799 17.9945 10.7799H18.5168C18.865 10.7799 19.0971 11.0122 19.0971 11.3606V11.5349ZM19.0971 9.15386C19.0971 9.44423 18.865 9.7346 18.5168 9.7346H17.9945C17.7043 9.7346 17.4142 9.5023 17.4142 9.15386V8.97964C17.4142 8.68928 17.6463 8.39891 17.9945 8.39891H18.5168C18.865 8.39891 19.0971 8.6312 19.0971 8.97964V9.15386ZM19.0971 6.42442C19.0971 6.71479 18.865 7.00515 18.5168 7.00515H17.9945C17.7043 7.00515 17.4142 6.77286 17.4142 6.42442V6.2502C17.4142 5.95983 17.6463 5.66947 17.9945 5.66947H18.5168C18.865 5.66947 19.0971 5.90176 19.0971 6.2502V6.42442Z" fill="#FCFEFF"/>
<path d="M7.25855 3.1723C7.25855 3.46267 6.91036 3.75304 6.56217 3.75304C6.21398 3.75304 5.86578 3.52074 5.86578 3.1723V0.617079C5.86578 0.326713 6.21398 0.0363464 6.56217 0.0363464C6.85233 0.0363464 7.25855 0.26864 7.25855 0.617079V3.1723Z" fill="#FCFEFF"/>
<path d="M9.98606 3.1723C9.98606 3.46267 9.63787 3.75304 9.28968 3.75304C8.99952 3.75304 8.59329 3.52074 8.59329 3.1723V0.617079C8.59329 0.326713 8.94148 0.0363464 9.28968 0.0363464C9.63787 0.0363464 9.98606 0.26864 9.98606 0.617079V3.1723Z" fill="#FCFEFF"/>
<path d="M12.3073 3.1723C12.3073 3.46267 12.1332 3.75304 11.785 3.75304C11.4369 3.75304 11.2628 3.52074 11.2628 3.1723V0.617079C11.2628 0.326713 11.4369 0.0363464 11.785 0.0363464C12.0752 0.0363464 12.3073 0.26864 12.3073 0.617079V3.1723Z" fill="#FCFEFF"/>
<path d="M15.0348 3.1723C15.0348 3.46267 14.6867 3.75304 14.3385 3.75304C13.9903 3.75304 13.6421 3.52074 13.6421 3.1723V0.617079C13.6421 0.326713 13.9903 0.0363464 14.3385 0.0363464C14.6286 0.0363464 15.0348 0.26864 15.0348 0.617079V3.1723Z" fill="#FCFEFF"/>
</g>
<defs>
<clipPath id="clip0">
<rect width="20.4273" height="19.4545" fill="white" transform="translate(0.00454712 0.0363464)"/>
</clipPath>
</defs>
</svg>
