<svg width="29" height="28" viewBox="0 0 29 28" fill="none" xmlns="http://www.w3.org/2000/svg">
<g clip-path="url(#clip0)">
<path d="M29.0001 17.166V27.998H22.7848V17.8901C22.7848 15.3507 21.8859 13.6179 19.633 13.6179C18.9318 13.6222 18.249 13.8454 17.6782 14.257C17.1073 14.6686 16.6763 15.2484 16.4442 15.917C16.2847 16.4108 16.2151 16.9296 16.2387 17.4485V27.998H10.0228C10.0228 27.998 10.1064 10.8791 10.0228 9.10536H16.2387V11.7832C16.2264 11.8033 16.2099 11.8248 16.1976 11.8442H16.2387V11.7832C16.8013 10.7953 17.621 9.98197 18.6089 9.43163C19.5967 8.8813 20.7149 8.61497 21.842 8.66158C25.9339 8.66297 29.0001 11.363 29.0001 17.166ZM3.51843 -0.000666397C1.39165 -0.000666397 5.95182e-05 1.40889 5.95182e-05 3.26291C-0.00263207 3.71025 0.0859949 4.15334 0.260404 4.56452C0.434814 4.97569 0.691259 5.34611 1.01372 5.65264C1.33618 5.95917 1.71774 6.19522 2.13455 6.34605C2.55136 6.49688 2.99447 6.55924 3.43621 6.52925H3.478C5.64658 6.52925 6.995 5.07539 6.995 3.2636C6.9965 2.81313 6.90567 2.36723 6.72823 1.95397C6.55078 1.54071 6.29057 1.16906 5.96398 0.862416C5.6374 0.555771 5.2515 0.320778 4.83061 0.172237C4.40972 0.0236969 3.96295 -0.0351737 3.51843 -0.000666397ZM0.369368 27.998H6.58458V9.10674H0.369368V27.998Z" fill="#C6B597"/>
</g>
<defs>
<clipPath id="clip0">
<rect width="29" height="28" fill="white"/>
</clipPath>
</defs>
</svg>
