<svg width="16" height="15" viewBox="0 0 16 15" fill="none" xmlns="http://www.w3.org/2000/svg">
<path d="M14.4 0H1.6C0.721569 0 0 0.676471 0 1.5V13.5C0 14.3235 0.721569 15 1.6 15H14.4C15.2784 15 16 14.3235 16 13.5V1.5C16 0.676471 15.2784 0 14.4 0ZM4.8 12.75H2.4V6H4.8V12.75ZM3.60157 4.72353C2.80157 4.72353 2.16157 4.12353 2.16157 3.37353C2.16157 2.62353 2.80157 2.02353 3.60157 2.02353C4.40157 2.02353 5.04157 2.62353 5.04157 3.37353C5.04157 4.12353 4.39843 4.72353 3.60157 4.72353ZM13.6 12.75H11.2V8.77647C11.2 8.17647 10.6384 7.65294 10.0016 7.65294C9.36471 7.65294 8.80314 8.17941 8.80314 8.77647V12.75H6.4V6H8.8V6.9C9.20157 6.3 10.08 5.85 10.8016 5.85C12.3231 5.85 13.6 7.05 13.6 8.47647V12.75Z" fill="white"/>
</svg>
