<svg width="302" height="68" viewBox="0 0 302 68" fill="none" xmlns="http://www.w3.org/2000/svg">
<path d="M0 50.9476L29.3003 68V54.6865L0 37.6341V50.9476Z" fill="white"/>
<path d="M29.3003 30.3659V17.0524L0 0V9.95889V13.3135V18.7996V28.3392V32.148L29.3003 49.2004V35.8869L10.4447 24.8798V19.3936L29.3003 30.3659Z" fill="white"/>
<path d="M58.5661 13.3135L29.3003 30.3659V17.0524L58.5661 0V13.3135Z" fill="white"/>
<path d="M29.3003 35.8869V49.2004L48.1559 38.2281V43.7143L29.3003 54.6865V68L58.5661 50.9476V47.6629V37.6341V32.148V29.2477V18.7996L29.3003 35.8869Z" fill="white"/>
<path d="M74.8709 55.7706C73.6989 54.6175 73.0784 53.1499 73.0784 51.4027C73.0784 49.6206 73.6644 48.1529 74.8365 47.0347C76.0085 45.8816 77.5252 45.3225 79.3177 45.3225C80.4552 45.3225 81.4549 45.5671 82.3856 46.0563V48.4674C81.4893 47.8734 80.4897 47.5589 79.3521 47.5589C78.2491 47.5589 77.3528 47.9433 76.5945 48.6421C75.8706 49.376 75.4914 50.2495 75.4914 51.4027C75.4914 52.5209 75.8706 53.4294 76.6289 54.1632C77.3873 54.897 78.318 55.2465 79.4556 55.2465C80.6965 55.2465 81.7651 54.897 82.6269 54.2331V56.6442C81.6962 57.2033 80.5931 57.4828 79.3521 57.4828C77.5252 57.4828 76.0429 56.8888 74.8709 55.7706Z" fill="white"/>
<path d="M92.3821 47.0689C93.5197 45.8808 94.9674 45.2867 96.6565 45.2867C98.3456 45.2867 99.7934 45.8808 100.931 47.0689C102.068 48.2569 102.654 49.6896 102.654 51.4018C102.654 53.0791 102.068 54.5468 100.931 55.7348C99.7934 56.9229 98.3801 57.517 96.6565 57.517C94.933 57.517 93.5197 56.9229 92.3821 55.7348C91.2446 54.5468 90.6931 53.1141 90.6931 51.4018C90.6931 49.6547 91.2446 48.222 92.3821 47.0689ZM96.691 55.2107C97.7251 55.2107 98.5524 54.8263 99.2418 54.1274C99.9313 53.3936 100.276 52.4851 100.276 51.3669C100.276 50.2487 99.9313 49.3402 99.2418 48.6064C98.5524 47.8726 97.7251 47.5231 96.691 47.5231C95.6569 47.5231 94.7951 47.9075 94.1402 48.6064C93.4507 49.3402 93.1405 50.2487 93.1405 51.3669C93.1405 52.4851 93.4852 53.3936 94.1402 54.1274C94.7951 54.8263 95.6569 55.2107 96.691 55.2107Z" fill="white"/>
<path d="M111.41 57.2374V45.5313H113.444L119.27 53.0092V45.5313H121.579V57.2374H119.614L113.754 49.7245V57.2374H111.41Z" fill="white"/>
<path d="M130.197 56.224V53.7081C130.679 54.1274 131.3 54.5118 132.127 54.8263C132.92 55.1408 133.713 55.2806 134.506 55.2806C135.747 55.2806 136.746 54.8263 136.746 53.9178C136.746 53.4985 136.539 53.1141 136.16 52.9394C135.953 52.7996 135.816 52.7646 135.505 52.6249L135.126 52.4851L134.195 52.2055L133.334 51.926C133.161 51.8911 132.92 51.7862 132.541 51.6465C132.196 51.5067 131.955 51.4018 131.782 51.297C131.472 51.0874 130.921 50.668 130.679 50.2837C130.473 49.8993 130.3 49.3052 130.3 48.6413C130.3 47.593 130.679 46.7893 131.472 46.1953C132.265 45.6012 133.334 45.2867 134.644 45.2867C135.988 45.2867 137.263 45.6012 138.435 46.2652V48.6064C137.263 47.8726 136.022 47.4882 134.678 47.4882C133.368 47.4882 132.713 47.8726 132.713 48.6413C132.713 49.0257 132.954 49.2703 133.334 49.445C133.54 49.5498 133.954 49.7246 134.264 49.7944C134.575 49.8643 135.161 50.0391 135.505 50.1788C136.608 50.5283 137.229 50.8428 138.022 51.4019C138.815 51.9609 139.194 52.7646 139.194 53.8479C139.194 54.9661 138.78 55.8397 137.884 56.5036C136.988 57.1675 135.919 57.482 134.609 57.482C132.851 57.482 131.369 57.0627 130.197 56.224Z" fill="white"/>
<path d="M146.639 45.5313H156.326V47.6978H152.672V57.2374H150.293V47.6978H146.639V45.5313Z" fill="white"/>
<path d="M164.668 57.2374V45.5313H170.011C171.217 45.5313 172.217 45.8458 172.906 46.5097C173.63 47.1387 173.975 47.9774 173.975 48.9907C173.975 50.5632 173.079 51.7512 171.596 52.2405L175.147 57.2374H172.389L169.011 52.52H167.012V57.2374H164.668ZM167.046 50.4583H169.873C170.941 50.4583 171.596 49.9691 171.596 49.0257C171.596 48.1521 170.941 47.593 169.873 47.593H167.046V50.4583Z" fill="white"/>
<path d="M184.557 56.1192C183.627 55.2107 183.179 53.9527 183.179 52.3103V45.5313H185.523V52.4152C185.523 54.2672 186.591 55.2107 188.108 55.2107C189.659 55.2107 190.693 54.2672 190.693 52.4152V45.5313H193.072V52.3103C193.072 53.9177 192.624 55.2107 191.659 56.1192C190.728 57.0277 189.556 57.482 188.108 57.482C186.695 57.482 185.488 57.0277 184.557 56.1192Z" fill="white"/>
<path d="M203.448 55.7698C202.276 54.6166 201.655 53.149 201.655 51.4018C201.655 49.6197 202.241 48.1521 203.413 47.0339C204.585 45.8808 206.102 45.3217 207.894 45.3217C209.032 45.3217 210.032 45.5663 210.962 46.0555V48.4666C210.066 47.8725 209.066 47.558 207.929 47.558C206.826 47.558 205.929 47.9424 205.171 48.6413C204.447 49.3751 204.068 50.2487 204.068 51.4018C204.068 52.52 204.447 53.4285 205.206 54.1624C205.964 54.8962 206.895 55.2456 208.032 55.2456C209.273 55.2456 210.342 54.8962 211.204 54.2322V56.6433C210.273 57.2024 209.17 57.482 207.929 57.482C206.136 57.482 204.654 56.8879 203.448 55.7698Z" fill="white"/>
<path d="M219.063 45.5313H228.749V47.6978H225.095V57.2374H222.717V47.6978H219.063V45.5313Z" fill="white"/>
<path d="M237.195 57.2374V45.5313H239.539V57.2374H237.195Z" fill="white"/>
<path d="M250.087 47.0689C251.224 45.8808 252.672 45.2867 254.361 45.2867C256.085 45.2867 257.498 45.8808 258.636 47.0689C259.773 48.2569 260.359 49.6896 260.359 51.4018C260.359 53.0791 259.773 54.5468 258.636 55.7348C257.498 56.9229 256.085 57.517 254.361 57.517C252.638 57.517 251.224 56.9229 250.087 55.7348C248.949 54.5468 248.398 53.1141 248.398 51.4018C248.398 49.6547 248.949 48.222 250.087 47.0689ZM254.396 55.2107C255.43 55.2107 256.257 54.8263 256.947 54.1274C257.636 53.3936 257.981 52.4851 257.981 51.3669C257.981 50.2487 257.636 49.3402 256.947 48.6064C256.257 47.8726 255.43 47.5231 254.396 47.5231C253.362 47.5231 252.5 47.9075 251.845 48.6064C251.155 49.3402 250.845 50.2487 250.845 51.3669C250.845 52.4851 251.19 53.3936 251.845 54.1274C252.5 54.8263 253.362 55.2107 254.396 55.2107Z" fill="white"/>
<path d="M269.115 57.2374V45.5313H271.148L276.974 53.0092V45.5313H279.284V57.2374H277.319L271.459 49.7245V57.2374H269.115Z" fill="white"/>
<path d="M73.0784 34.7687V11.0071H83.3163C85.8327 11.0071 87.832 11.6711 89.2798 12.9989C90.762 14.3268 91.4859 16.0041 91.4859 18.1706C91.4859 20.337 90.762 22.0493 89.2798 23.3422C87.832 24.67 85.8327 25.334 83.3163 25.334H77.9044V34.7338H73.0784V34.7687ZM77.9044 21.2106H83.0061C85.3156 21.2106 86.6945 20.1623 86.6945 18.2754C86.6945 16.3884 85.3156 15.3401 83.0061 15.3401H77.9044V21.2106Z" fill="white"/>
<path d="M94.3815 34.7687V11.0071H111.582V15.3751H99.2074V19.9527H109.17V24.2507H99.2074V30.4008H111.962V34.7687H94.3815Z" fill="white"/>
<path d="M115.891 34.7687V11.0071H119.993L131.817 26.2076V11.0071H136.505V34.7338H132.541L120.648 19.4635V34.7338H115.891V34.7687Z" fill="white"/>
<path d="M139.366 11.0071H159.015V15.3751H151.603V34.7338H146.777V15.41H139.401V11.0071H139.366Z" fill="white"/>
<path d="M156.843 34.7687L166.874 10.9023H171.493L181.524 34.7687H176.422L174.113 29.2826H164.22L161.91 34.7687H156.843ZM165.702 25.2292H172.562L169.149 16.9825L165.702 25.2292Z" fill="white"/>
<path d="M195.864 31.7636C193.485 29.4224 192.279 26.4871 192.279 22.888C192.279 19.2538 193.485 16.3186 195.864 14.0123C198.242 11.7061 201.276 10.5529 204.93 10.5529C207.653 10.5529 209.997 11.147 211.962 12.335V17.1572C209.79 15.7944 207.584 15.1305 205.275 15.1305C202.896 15.1305 200.966 15.8294 199.449 17.297C197.932 18.7297 197.208 20.6166 197.208 22.9928C197.208 25.334 197.932 27.221 199.38 28.6187C200.828 30.0164 202.62 30.7153 204.757 30.7153C206.791 30.7153 208.377 30.1911 209.48 29.1428V21.001H214.306V31.4841C213.341 32.5324 211.996 33.4409 210.307 34.1747C208.618 34.8736 206.757 35.2579 204.792 35.2579C201.207 35.223 198.242 34.0699 195.864 31.7636Z" fill="white"/>
<path d="M218.822 34.7688V11.0072H236.023V15.3751H223.648V19.9527H233.61V24.2508H223.648V30.4008H236.402V34.7688H218.822Z" fill="white"/>
<path d="M240.228 32.148C240.228 30.5056 241.503 29.2477 243.124 29.2477C244.744 29.2477 246.019 30.5406 246.019 32.148C246.019 33.8253 244.709 35.1182 243.124 35.1182C241.469 35.1182 240.228 33.8253 240.228 32.148Z" fill="white"/>
<path d="M251.604 31.7636C249.191 29.4224 247.984 26.4871 247.984 22.888C247.984 19.2538 249.191 16.3186 251.569 14.0123C253.982 11.7061 257.015 10.5529 260.669 10.5529C262.979 10.5529 265.013 11.0771 266.874 12.0555V16.9825C265.082 15.7595 263.013 15.1655 260.704 15.1655C258.463 15.1655 256.636 15.8993 255.12 17.3669C253.637 18.8345 252.913 20.6516 252.913 22.9229C252.913 25.1942 253.672 27.0462 255.188 28.5139C256.705 29.9815 258.601 30.6804 260.911 30.6804C263.462 30.6804 265.599 30.0164 267.322 28.6187V33.5457C265.426 34.6989 263.22 35.2579 260.669 35.2579C257.015 35.223 254.016 34.0699 251.604 31.7636Z" fill="white"/>
<path d="M273.286 14.1521C275.595 11.741 278.491 10.5529 281.972 10.5529C285.454 10.5529 288.315 11.741 290.625 14.1521C292.934 16.5283 294.106 19.4286 294.106 22.888C294.106 26.3124 292.934 29.2127 290.625 31.6238C288.315 34.0349 285.454 35.223 281.972 35.223C278.491 35.223 275.595 34.0349 273.286 31.6238C270.976 29.2127 269.839 26.3124 269.839 22.888C269.873 19.4286 271.011 16.5283 273.286 14.1521ZM282.007 30.6454C284.075 30.6454 285.799 29.9116 287.143 28.444C288.522 26.9764 289.211 25.1244 289.211 22.888C289.211 20.6516 288.522 18.7996 287.143 17.332C285.764 15.8643 284.075 15.1305 282.007 15.1305C279.939 15.1305 278.181 15.8643 276.836 17.332C275.492 18.7996 274.802 20.6516 274.802 22.888C274.802 25.1244 275.457 26.9764 276.836 28.444C278.181 29.9116 279.939 30.6454 282.007 30.6454Z" fill="white"/>
<path d="M296.174 32.148C296.174 30.5056 297.45 29.2477 299.07 29.2477C300.69 29.2477 301.966 30.5406 301.966 32.148C301.966 33.8253 300.656 35.1182 299.07 35.1182C297.45 35.1182 296.174 33.8253 296.174 32.148Z" fill="white"/>
</svg>
