<svg width="196" height="44" viewBox="0 0 196 44" fill="none" xmlns="http://www.w3.org/2000/svg">
<path d="M0 32.9661L19.0161 44V35.3854L0 24.3515V32.9661Z" fill="white"/>
<path d="M19.0161 19.6485V11.0339L0 0V6.44399V8.61459V12.1644V18.3371V20.8016L19.0161 31.8356V23.221L6.77868 16.0987V12.5488L19.0161 19.6485Z" fill="white"/>
<path d="M38.0098 8.61459L19.0161 19.6485V11.0339L38.0098 0V8.61459Z" fill="white"/>
<path d="M19.0161 23.221V31.8355L31.2535 24.7359V28.2857L19.0161 35.3854V44L38.0098 32.9661V30.8407V24.3515V20.8016V18.925V12.1644L19.0161 23.221Z" fill="white"/>
<path d="M48.5917 36.0869C47.8311 35.3407 47.4284 34.3911 47.4284 33.2606C47.4284 32.1074 47.8087 31.1578 48.5694 30.4342C49.33 29.6881 50.3144 29.3263 51.4777 29.3263C52.216 29.3263 52.8648 29.4846 53.4688 29.8011V31.3613C52.8871 30.9769 52.2384 30.7734 51.5001 30.7734C50.7842 30.7734 50.2025 31.0221 49.7103 31.4743C49.2405 31.9491 48.9944 32.5144 48.9944 33.2606C48.9944 33.9841 49.2405 34.572 49.7327 35.0468C50.2249 35.5216 50.8289 35.7477 51.5672 35.7477C52.3726 35.7477 53.0661 35.5216 53.6254 35.092V36.6521C53.0214 37.0139 52.3055 37.1948 51.5001 37.1948C50.3144 37.1948 49.3524 36.8104 48.5917 36.0869Z" fill="white"/>
<path d="M59.9566 30.4563C60.6949 29.6876 61.6345 29.3032 62.7307 29.3032C63.827 29.3032 64.7666 29.6876 65.5049 30.4563C66.2431 31.2251 66.6235 32.1521 66.6235 33.26C66.6235 34.3453 66.2431 35.295 65.5049 36.0637C64.7666 36.8325 63.8493 37.2169 62.7307 37.2169C61.6122 37.2169 60.6949 36.8325 59.9566 36.0637C59.2184 35.295 58.8604 34.3679 58.8604 33.26C58.8604 32.1295 59.2184 31.2025 59.9566 30.4563ZM62.7531 35.7246C63.4243 35.7246 63.9612 35.4758 64.4086 35.0236C64.8561 34.5488 65.0798 33.9609 65.0798 33.2374C65.0798 32.5139 64.8561 31.926 64.4086 31.4512C63.9612 30.9764 63.4243 30.7503 62.7531 30.7503C62.082 30.7503 61.5227 30.999 61.0976 31.4512C60.6502 31.926 60.4488 32.5139 60.4488 33.2374C60.4488 33.9609 60.6725 34.5488 61.0976 35.0236C61.5227 35.4758 62.082 35.7246 62.7531 35.7246Z" fill="white"/>
<path d="M72.3059 37.036V29.4615H73.6258L77.4067 34.3001V29.4615H78.9056V37.036H77.6304L73.8272 32.1747V37.036H72.3059Z" fill="white"/>
<path d="M84.4986 36.3803V34.7523C84.8118 35.0236 85.2145 35.2724 85.7514 35.4759C86.266 35.6793 86.7805 35.7698 87.2951 35.7698C88.1005 35.7698 88.7492 35.4759 88.7492 34.888C88.7492 34.6167 88.615 34.3679 88.3689 34.2549C88.2347 34.1644 88.1452 34.1418 87.9439 34.0514L87.6978 33.9609L87.0937 33.7801L86.5344 33.5992C86.4226 33.5766 86.266 33.5087 86.0199 33.4183C85.7962 33.3279 85.6396 33.26 85.5277 33.1922C85.3263 33.0565 84.9684 32.7852 84.8118 32.5365C84.6776 32.2878 84.5657 31.9034 84.5657 31.4738C84.5657 30.7955 84.8118 30.2754 85.3264 29.8911C85.8409 29.5067 86.5344 29.3032 87.3846 29.3032C88.2571 29.3032 89.0848 29.5067 89.8455 29.9363V31.4512C89.0848 30.9764 88.2794 30.7276 87.4069 30.7276C86.5568 30.7276 86.1317 30.9764 86.1317 31.4738C86.1317 31.7225 86.2883 31.8808 86.5344 31.9938C86.6687 32.0617 86.9371 32.1747 87.1385 32.2199C87.3398 32.2652 87.7201 32.3782 87.9439 32.4687C88.6598 32.6948 89.0625 32.8983 89.577 33.26C90.0916 33.6218 90.3376 34.1418 90.3376 34.8428C90.3376 35.5663 90.0692 36.1316 89.4875 36.5612C88.9058 36.9908 88.2123 37.1942 87.3622 37.1942C86.2212 37.1942 85.2592 36.9229 84.4986 36.3803Z" fill="white"/>
<path d="M95.17 29.4615H101.456V30.8633H99.0851V37.036H97.5414V30.8633H95.17V29.4615Z" fill="white"/>
<path d="M106.87 37.036V29.4615H110.338C111.121 29.4615 111.77 29.665 112.217 30.0946C112.687 30.5015 112.911 31.0442 112.911 31.6999C112.911 32.7174 112.329 33.4861 111.367 33.8027L113.672 37.036H111.882L109.689 33.9836H108.392V37.036H106.87ZM108.414 32.6495H110.249C110.942 32.6495 111.367 32.333 111.367 31.7225C111.367 31.1572 110.942 30.7955 110.249 30.7955H108.414V32.6495Z" fill="white"/>
<path d="M119.779 36.3124C119.175 35.7246 118.884 34.9106 118.884 33.8479V29.4615H120.405V33.9157C120.405 35.1141 121.099 35.7246 122.083 35.7246C123.09 35.7246 123.761 35.1141 123.761 33.9157V29.4615H125.305V33.8479C125.305 34.888 125.014 35.7246 124.388 36.3124C123.784 36.9003 123.023 37.1942 122.083 37.1942C121.166 37.1942 120.383 36.9003 119.779 36.3124Z" fill="white"/>
<path d="M132.039 36.0863C131.278 35.3402 130.875 34.3906 130.875 33.26C130.875 32.1069 131.256 31.1573 132.016 30.4337C132.777 29.6876 133.761 29.3258 134.925 29.3258C135.663 29.3258 136.312 29.4841 136.916 29.8006V31.3607C136.334 30.9764 135.685 30.7729 134.947 30.7729C134.231 30.7729 133.65 31.0216 133.157 31.4738C132.688 31.9486 132.442 32.5139 132.442 33.26C132.442 33.9836 132.688 34.5714 133.18 35.0463C133.672 35.5211 134.276 35.7472 135.014 35.7472C135.82 35.7472 136.513 35.5211 137.072 35.0915V36.6516C136.468 37.0134 135.753 37.1943 134.947 37.1943C133.784 37.1943 132.822 36.8099 132.039 36.0863Z" fill="white"/>
<path d="M142.173 29.4615H148.46V30.8633H146.088V37.036H144.545V30.8633H142.173V29.4615Z" fill="white"/>
<path d="M153.941 37.036V29.4615H155.462V37.036H153.941Z" fill="white"/>
<path d="M162.308 30.4563C163.046 29.6876 163.986 29.3032 165.082 29.3032C166.201 29.3032 167.118 29.6876 167.856 30.4563C168.594 31.2251 168.975 32.1521 168.975 33.26C168.975 34.3453 168.594 35.295 167.856 36.0637C167.118 36.8325 166.201 37.2169 165.082 37.2169C163.964 37.2169 163.046 36.8325 162.308 36.0637C161.57 35.295 161.212 34.3679 161.212 33.26C161.212 32.1295 161.57 31.2025 162.308 30.4563ZM165.104 35.7246C165.776 35.7246 166.313 35.4758 166.76 35.0236C167.207 34.5488 167.431 33.9609 167.431 33.2374C167.431 32.5139 167.207 31.926 166.76 31.4512C166.313 30.9764 165.776 30.7503 165.104 30.7503C164.433 30.7503 163.874 30.999 163.449 31.4512C163.002 31.926 162.8 32.5139 162.8 33.2374C162.8 33.9609 163.024 34.5488 163.449 35.0236C163.874 35.4758 164.433 35.7246 165.104 35.7246Z" fill="white"/>
<path d="M174.657 37.036V29.4615H175.977L179.758 34.3001V29.4615H181.257V37.036H179.982L176.179 32.1747V37.036H174.657Z" fill="white"/>
<path d="M47.4284 22.4974V7.12231H54.0729C55.706 7.12231 57.0036 7.55191 57.9432 8.41111C58.9052 9.27031 59.375 10.3556 59.375 11.7575C59.375 13.1593 58.9052 14.2672 57.9432 15.1038C57.0036 15.963 55.706 16.3926 54.0729 16.3926H50.5605V22.4748H47.4284V22.4974ZM50.5605 13.7246H53.8715C55.3704 13.7246 56.2653 13.0463 56.2653 11.8253C56.2653 10.6043 55.3704 9.92601 53.8715 9.92601H50.5605V13.7246Z" fill="white"/>
<path d="M61.2542 22.4974V7.12231H72.4178V9.94862H64.3863V12.9106H70.8518V15.6917H64.3863V19.6711H72.6639V22.4974H61.2542Z" fill="white"/>
<path d="M75.2143 22.4974V7.12231H77.8765L85.5501 16.9579V7.12231H88.5927V22.4748H86.0199L78.3016 12.5941V22.4748H75.2143V22.4974Z" fill="white"/>
<path d="M90.4495 7.12231H103.201V9.94862H98.3915V22.4748H95.2595V9.97123H90.4719V7.12231H90.4495Z" fill="white"/>
<path d="M101.792 22.4974L108.302 7.05447H111.3L117.81 22.4974H114.499L113 18.9476H106.58L105.081 22.4974H101.792ZM107.542 16.3248H111.994L109.779 10.9887L107.542 16.3248Z" fill="white"/>
<path d="M127.117 20.5529C125.573 19.038 124.79 17.1387 124.79 14.8099C124.79 12.4584 125.573 10.5591 127.117 9.06681C128.661 7.57451 130.629 6.82837 133.001 6.82837C134.768 6.82837 136.289 7.21275 137.565 7.9815V11.1017C136.155 10.2199 134.723 9.79034 133.225 9.79034C131.681 9.79034 130.428 10.2426 129.444 11.1922C128.459 12.1192 127.99 13.3402 127.99 14.8777C127.99 16.3926 128.459 17.6136 129.399 18.518C130.339 19.4224 131.502 19.8746 132.889 19.8746C134.209 19.8746 135.238 19.5355 135.954 18.8571V13.5889H139.086V20.372C138.46 21.0504 137.587 21.6382 136.491 22.1131C135.395 22.5653 134.187 22.814 132.911 22.814C130.585 22.7914 128.661 22.0452 127.117 20.5529Z" fill="white"/>
<path d="M142.017 22.4974V7.12231H153.18V9.94862H145.149V12.9106H151.614V15.6917H145.149V19.6711H153.426V22.4974H142.017Z" fill="white"/>
<path d="M155.91 20.8017C155.91 19.739 156.737 18.925 157.789 18.925C158.84 18.925 159.668 19.7616 159.668 20.8017C159.668 21.887 158.818 22.7235 157.789 22.7235C156.715 22.7235 155.91 21.887 155.91 20.8017Z" fill="white"/>
<path d="M163.292 20.5529C161.726 19.038 160.943 17.1387 160.943 14.8099C160.943 12.4584 161.726 10.5591 163.27 9.06681C164.836 7.57451 166.805 6.82837 169.176 6.82837C170.675 6.82837 171.995 7.16753 173.203 7.80062V10.9887C172.04 10.1973 170.697 9.81295 169.199 9.81295C167.744 9.81295 166.559 10.2878 165.574 11.2374C164.612 12.1871 164.142 13.3628 164.142 14.8325C164.142 16.3022 164.635 17.5005 165.619 18.4502C166.603 19.3998 167.834 19.852 169.333 19.852C170.988 19.852 172.375 19.4224 173.494 18.518V21.7061C172.263 22.4522 170.832 22.814 169.176 22.814C166.805 22.7914 164.858 22.0452 163.292 20.5529Z" fill="white"/>
<path d="M177.364 9.15725C178.863 7.59713 180.742 6.82837 183.002 6.82837C185.262 6.82837 187.118 7.59713 188.617 9.15725C190.116 10.6948 190.877 12.5714 190.877 14.8099C190.877 17.0257 190.116 18.9024 188.617 20.4625C187.118 22.0226 185.262 22.7914 183.002 22.7914C180.742 22.7914 178.863 22.0226 177.364 20.4625C175.865 18.9024 175.127 17.0257 175.127 14.8099C175.149 12.5714 175.888 10.6948 177.364 9.15725ZM183.024 19.8294C184.367 19.8294 185.485 19.3546 186.358 18.4049C187.253 17.4553 187.7 16.2569 187.7 14.8099C187.7 13.3628 187.253 12.1644 186.358 11.2148C185.463 10.2652 184.367 9.79034 183.024 9.79034C181.682 9.79034 180.541 10.2652 179.669 11.2148C178.796 12.1644 178.349 13.3628 178.349 14.8099C178.349 16.2569 178.774 17.4553 179.669 18.4049C180.541 19.3546 181.682 19.8294 183.024 19.8294Z" fill="white"/>
<path d="M192.219 20.8017C192.219 19.739 193.047 18.925 194.098 18.925C195.15 18.925 195.978 19.7616 195.978 20.8017C195.978 21.887 195.128 22.7235 194.098 22.7235C193.047 22.7235 192.219 21.887 192.219 20.8017Z" fill="white"/>
</svg>
