<svg width="22" height="15" viewBox="0 0 22 15" fill="none" xmlns="http://www.w3.org/2000/svg">
<path d="M21.0633 1.4446C20.466 0.392045 19.8172 0.200284 18.5023 0.12358C17.1832 0.0383523 13.8703 0 11.0043 0C8.12969 0 4.8125 0.0383523 3.49766 0.12358C2.18281 0.200284 1.53398 0.392045 0.932422 1.4446C0.317969 2.49716 0 4.30824 0 7.49574C0 7.5 0 7.5 0 7.5C0 7.50426 0 7.50426 0 7.50426V7.50852C0 10.6832 0.317969 12.5071 0.932422 13.5469C1.53398 14.5994 2.18281 14.7912 3.49766 14.8807C4.8168 14.9574 8.12969 15 11.0043 15C13.8746 15 17.1875 14.9531 18.5066 14.8807C19.8258 14.7912 20.4746 14.5994 21.0676 13.5469C21.6863 12.5071 22 10.6832 22 7.50852C22 7.50852 22 7.50426 22 7.5V7.49574C22 4.30824 21.6863 2.49716 21.0633 1.4446ZM8.25 11.5909V3.40909L15.125 7.5L8.25 11.5909Z" fill="white"/>
</svg>
